<svg xmlns="http://www.w3.org/2000/svg" xmlns:xlink="http://www.w3.org/1999/xlink" viewBox="0 0 147.19 147.19"><defs><style>.cls-1{fill:url(#未命名的渐变_10);}.cls-2,.cls-3{fill:#fff;}.cls-2{opacity:0.3;}</style><linearGradient id="未命名的渐变_10" x1="27.61" y1="24.08" x2="137.17" y2="142.05" gradientUnits="userSpaceOnUse"><stop offset="0" stop-color="#26ce9a"/><stop offset="1" stop-color="#448aff"/></linearGradient></defs><title>资源 10</title><g id="图层_2" data-name="图层 2"><g id="图层_1-2" data-name="图层 1"><rect class="cls-1" width="147.19" height="147.19" rx="73.6"/><path class="cls-2" d="M125.37,113.17,81,42.69a11.83,11.83,0,0,0-21.55.22L38.11,91.12a11.64,11.64,0,0,0,10.64,16.34H70A11.64,11.64,0,0,0,81.63,95.82V88.69c0-.24,0-.47,0-.71l33,22.23Z"/><path class="cls-3" d="M85.67,42.21a16.93,16.93,0,0,0-15.42-9.7h-.18a17,17,0,0,0-15.49,10.2L33.27,90.92a16.92,16.92,0,0,0,15.47,23.76H70A16.93,16.93,0,0,0,86.91,97.77V91.09a17.53,17.53,0,0,0-5.09-12.56,16.78,16.78,0,0,0-12.26-4.81l-5.74.15h0a5.28,5.28,0,0,0,.06,10.56l.21,0v0l5.74-.15a6.38,6.38,0,0,1,4.93,2.15,6.71,6.71,0,0,1,1.59,4.47v6.87A6.37,6.37,0,0,1,70,104.12H48.74a6.36,6.36,0,0,1-5.8-8.92L64.25,47a6.39,6.39,0,0,1,5.93-3.9h.07a6.4,6.4,0,0,1,5.94,3.78l.07.18,31.17,55.71a20.35,20.35,0,0,0,17.94,10.42h0Z"/></g></g></svg>