<svg xmlns="http://www.w3.org/2000/svg" xmlns:xlink="http://www.w3.org/1999/xlink" viewBox="0 0 200 200"><defs><style>.cls-1{fill:none;}.cls-2{fill:url(#未命名的渐变_10);}.cls-3{fill:url(#未命名的渐变_10-2);}</style><linearGradient id="未命名的渐变_10" x1="100.02" y1="100" x2="169.66" y2="100" gradientUnits="userSpaceOnUse"><stop offset="0" stop-color="#26ce9a"/><stop offset="1" stop-color="#448aff"/></linearGradient><linearGradient id="未命名的渐变_10-2" x1="30.34" y1="100" x2="141.94" y2="100" xlink:href="#未命名的渐变_10"/></defs><title>资源 14</title><g id="图层_2" data-name="图层 2"><g id="图层_1-2" data-name="图层 1"><rect class="cls-1" width="200" height="200"/><polygon class="cls-2" points="169.66 148.27 155.47 148.27 147.26 134.07 132.32 108.2 107.14 64.57 100.02 52.24 100.31 51.73 113.92 51.73 114.23 52.28 146.51 108.2 161.46 134.07 169.66 148.27"/><polygon class="cls-3" points="141.94 148.27 30.34 148.27 38.55 134.07 53.48 108.2 78.97 64.03 86.08 51.73 86.19 51.73 93.25 63.96 86.09 76.36 67.72 108.2 52.77 134.07 119.42 134.07 104.47 108.2 81.95 108.2 93.22 88.69 100.38 76.29 118.8 108.2 133.74 134.07 141.94 148.27"/></g></g></svg>