<svg width="48" height="48" viewBox="0 0 48 48" fill="none" xmlns="http://www.w3.org/2000/svg">
<path d="M10.847 9.35196C10.1815 9.44411 9.54061 9.6665 8.96105 10.0064C8.38149 10.3463 7.87459 10.7971 7.4693 11.333C7.06401 11.8689 6.76827 12.4793 6.599 13.1296C6.42973 13.7798 6.39022 14.457 6.48275 15.1224L9.50616 36.7187L22.2312 7.76362L10.847 9.35196Z" fill="#97D700"/>
<path d="M41.5528 27.3454L40.3638 10.7441C40.2645 9.39061 39.6317 8.13192 38.6046 7.24483C37.5775 6.35773 36.2401 5.91485 34.8865 6.01357C34.7726 6.02201 34.6587 6.03396 34.5455 6.04943L29.6476 6.72864L40.4348 30.9159C41.2459 29.9101 41.6454 28.6342 41.5528 27.3454V27.3454Z" fill="#71C5E8"/>
<path d="M14.1383 41.9682C15.0094 42.066 15.891 41.9372 16.6977 41.5941L35.2192 33.7776L26.414 14.0305L14.1383 41.9682Z" fill="#FF9013"/>
</svg>
