<svg xmlns="http://www.w3.org/2000/svg" viewBox="0 0 231.19 44.73"><defs><style>.cls-1{fill:#fff;}</style></defs><title>资源 4</title><g id="图层_2" data-name="图层 2"><g id="图层_1-2" data-name="图层 1"><path class="cls-1" d="M29.32,5.28A9.21,9.21,0,0,0,20.92,0h-.09a9.21,9.21,0,0,0-8.44,5.55L.79,31.8A9.21,9.21,0,0,0,9.21,44.73H20.79A9.22,9.22,0,0,0,30,35.52V31.89a9.53,9.53,0,0,0-2.77-6.84,9.17,9.17,0,0,0-6.68-2.62l-3.12.08h0a2.88,2.88,0,0,0,0,5.75l.12,0v0l3.12-.09a3.52,3.52,0,0,1,2.69,1.17,3.71,3.71,0,0,1,.86,2.44v3.73A3.46,3.46,0,0,1,20.79,39H9.21a3.46,3.46,0,0,1-3.16-4.85L17.66,7.87a3.47,3.47,0,0,1,3.22-2.12h0a3.51,3.51,0,0,1,3.24,2.06l0,.1,17,30.33a11.08,11.08,0,0,0,9.77,5.67h0Z"/><path class="cls-1" d="M118.23,38.05h-8.65a9.53,9.53,0,0,1-9.51-9.51V7H103V28.54a6.64,6.64,0,0,0,6.63,6.63h8.65Z"/><rect class="cls-1" x="82.65" y="26.74" width="2.88" height="11.31"/><path class="cls-1" d="M177.71,10.67c-1-3-3.27-4.74-5.93-4.7S166.83,8,166,11l-5.74,19.79L158,38.63h1.79l2.13-7.33,5.74-19.8c.67-2.31,2.28-3.77,4.2-3.81h.08c1.84,0,3.44,1.35,4.18,3.53l9.24,27.41h1.82Z"/><path class="cls-1" d="M204.39,39.49a11.64,11.64,0,0,1-11.63-11.63V16.68A11.45,11.45,0,0,1,204.19,5.25h.39A11.44,11.44,0,0,1,216,16.68h-1.72A9.73,9.73,0,0,0,204.58,7h-.39a9.73,9.73,0,0,0-9.71,9.71V27.86a9.91,9.91,0,0,0,19.81,0V26.4h-9.9V24.67H216v3.19A11.64,11.64,0,0,1,204.39,39.49Z"/><path class="cls-1" d="M231.19,38.62h-1.72V10.31A3.35,3.35,0,0,0,226.13,7h-3.78V5.25h3.78a5.07,5.07,0,0,1,5.06,5.06Z"/><path class="cls-1" d="M86.09,28.46h-4c-4.52,0-8.2-3.31-8.2-7.38V7h2.88V21.08c0,2.49,2.38,4.5,5.32,4.5h4c2.93,0,5.31-2,5.31-4.5V7h2.88V21.08C94.28,25.15,90.6,28.46,86.09,28.46Z"/><path class="cls-1" d="M137.74,38.37H126.66V34.85h11.08a3.92,3.92,0,0,0,3.92-3.92,5.91,5.91,0,0,0-5.9-5.9h-1.45a9.42,9.42,0,0,1-9.41-9.41,8.88,8.88,0,0,1,8.87-8.87h9.64v3.51h-9.64a5.37,5.37,0,0,0-5.36,5.36,5.91,5.91,0,0,0,5.9,5.9h1.45a9.42,9.42,0,0,1,9.41,9.41A7.45,7.45,0,0,1,137.74,38.37Z"/></g></g></svg>