<?xml version="1.0" standalone="no"?><!DOCTYPE svg PUBLIC "-//W3C//DTD SVG 1.1//EN" "http://www.w3.org/Graphics/SVG/1.1/DTD/svg11.dtd"><svg t="1722275051643" class="icon" viewBox="0 0 1024 1024" version="1.1" xmlns="http://www.w3.org/2000/svg" p-id="9303" xmlns:xlink="http://www.w3.org/1999/xlink" width="200" height="200"><path d="M638.464 416.768h252.928c34.816 0 63.488 28.16 63.488 63.488v411.136c0 34.816-28.16 63.488-63.488 63.488H480.256c-34.816 0-63.488-28.16-63.488-63.488v-252.928h126.464c52.736 0 94.72-42.496 94.72-94.72V416.768zM69.12 132.096c0-34.816 28.16-63.488 63.488-63.488h411.136c34.816 0 63.488 28.16 63.488 63.488v411.136c0 34.816-28.16 63.488-63.488 63.488H132.608c-34.816 0-63.488-28.16-63.488-63.488V132.096z m126.464 273.408h46.08v-24.576h66.56v116.736h49.152V380.928h68.096v20.48h50.176V246.272H357.376v-33.792c0-10.24 1.536-18.432 4.096-25.6 0.512-1.024 1.024-2.56 1.536-4.096 0-1.024-3.072-1.536-9.728-2.56h-46.08v66.56H195.584v158.72z m46.08-121.344h66.56v59.904h-66.56V284.16z m183.808 59.904H357.376V284.16h68.096v59.904z m201.216 482.304l18.944-53.248h99.328l18.944 53.248h54.272l-88.576-251.392H665.6l-91.136 251.392h52.224z m32.768-94.72l36.864-107.52h1.536l33.792 107.52h-72.192z m231.936-409.6h-63.488c0-70.144-56.832-126.464-126.464-126.464V132.096c104.96 0 189.952 84.992 189.952 189.952zM132.608 701.44h63.488c0 70.144 56.832 126.464 126.464 126.464v63.488c-104.96 0-189.952-84.992-189.952-189.952z" fill="#d4237a" p-id="9304"></path></svg>